<svg id="Ebene_1" data-name="Ebene 1" xmlns="http://www.w3.org/2000/svg" viewBox="0 0 523.46 112.12"><defs><style>.cls-1{fill:#5c686e;}.cls-2{fill:#213a8f;}</style></defs><path class="cls-1" d="M685.36,370.26h2.11V351.81h8v-1.93h-18.1v1.93h8Zm-29,0h2.11V352.84h.06l14.33,17.42h2.45V349.88h-2.1v17.41h-.06l-14.25-17.41H656.4Zm-19,0h16.44v-1.94H639.46v-7.65h13.59v-1.94H639.46v-6.92h14.11v-1.93H637.35Zm-17.22,0h15v-1.94H622.24V349.88h-2.11ZM616,349.88h-2.11v12.5c0,5.34-3.46,6.45-7,6.45s-7-1.11-7-6.45v-12.5h-2.1v12.5c0,3.71,1,8.39,9.1,8.39s9.11-4.68,9.11-8.39ZM594.4,355.7c-.14-4.86-4.33-6.34-8.5-6.34-3.95,0-8,1.45-8,5.91,0,3.29,2.59,4.66,7.45,5.43,3.71.59,7.42,1,7.42,4.08s-3.17,4.05-6.22,4.05c-3.92,0-6.77-1-7.15-5.31h-2.1c.31,5.49,4.07,7.25,9.25,7.25,4,0,8.5-1.36,8.5-6.36,0-3.91-3.7-4.77-7.42-5.4-5-.83-7.45-1.46-7.45-4.11,0-2.32,2.48-3.6,5.77-3.6s6.11.91,6.39,4.4Zm-39,14.56h2.11V352.84h.06l14.34,17.42h2.45V349.88h-2.11v17.41h-.06l-14.25-17.41h-2.54Zm-23-10.19c0-6.14,4.31-8.77,8.8-8.77s8.79,2.63,8.79,8.77-4.31,8.76-8.79,8.76-8.8-2.62-8.8-8.76m-2.28,0c0,7.19,5.28,10.7,11.08,10.7s11.07-3.51,11.07-10.7-5.28-10.71-11.07-10.71-11.08,3.51-11.08,10.71m-18.42,10.19h2.11v-6.88l4.45-3.66,9.46,10.54h3l-10.8-12L530,349.88h-3.06l-13.16,11v-11h-2.11Zm-17.22,0h15v-1.94H496.54V349.88h-2.11Zm-4.39,0h2.45l-9.25-20.38h-2.45l-9.25,20.38h2.28l2.77-6.2h10.73Zm-3.57-8.14h-9L482,352Zm-32.33-10.31h9.14c1.94,0,4.2.57,4.2,3.57s-2.09,4-4.4,4h-8.94ZM452,370.26h2.11v-9h8.2c3.51,0,4.88,1.2,4.94,4.8,0,2.23.17,3.74.54,4.17h2.28c-.48-.46-.66-2.94-.72-4.23-.13-3.34-.73-5.19-3.62-5.65v-.06a5,5,0,0,0,4-4.94c0-4.28-3.17-5.5-6.63-5.5H452Zm-19.22,0h16.44v-1.94H434.92v-7.65h13.59v-1.94H434.92v-6.92H449v-1.93H432.81Zm-23.21,0h2.11V352.84h.06l14.33,17.42h2.46V349.88h-2.11v17.41h-.06l-14.25-17.41H409.6Zm-19.05,0H407v-1.94H392.66v-7.65h13.59v-1.94H392.66v-6.92h14.11v-1.93H390.55Zm-5.73,0h1.62V359.75H377v1.95h7.48c-.63,3.65-2.57,7.13-8.68,7.13-5.43,0-8.22-3.28-8.22-8.76s3-8.77,8.62-8.77c3.65,0,6.74,1.57,7.57,5h2.28c-.54-3.77-4.17-7-9.85-7-6.77,0-10.91,4.54-10.91,10.71,0,6.37,3.77,10.7,10.68,10.7,4,0,6.4-1.36,8.48-4.36h.06Zm-45.58-18.45h9.14c1.94,0,4.2.57,4.2,3.57s-2.09,4-4.4,4h-8.94Zm-2.11,18.45h2.11v-9h8.2c3.51,0,4.88,1.2,4.94,4.8,0,2.23.17,3.74.54,4.17h2.28c-.48-.46-.66-2.94-.71-4.23-.14-3.34-.74-5.19-3.62-5.65v-.06a5,5,0,0,0,4-4.94c0-4.28-3.17-5.5-6.62-5.5H337.13Zm-19.22,0h16.45v-1.94H320v-7.65h13.59v-1.94H320v-6.92h14.11v-1.93H317.91Zm-20.36-18.45h7.71c4.71,0,6.82,2.86,6.82,8.26,0,6.25-3.17,8.25-6.82,8.25h-7.71Zm-2.11,18.45h10.22c5.71,0,8.71-4.45,8.71-10.19,0-6.4-3.09-10.19-9-10.19h-9.9Z" transform="translate(-172 -258.65)"/><path class="cls-1" d="M670.91,297.19H685c3,0,6.46.88,6.46,5.49,0,4.79-3.21,6.11-6.76,6.11H670.91Zm-3.26,28.38h3.26v-13.8h12.6c5.41,0,7.51,1.85,7.6,7.38,0,3.43.27,5.76.84,6.42h3.51c-.74-.71-1-4.53-1.09-6.5-.23-5.14-1.15-8-5.59-8.7v-.09a7.64,7.64,0,0,0,6.15-7.6c0-6.59-4.87-8.48-10.19-8.48H667.65Zm-29.46,0h25.3v-3h-22V310.81h20.91v-3H641.44V297.19h21.7v-3H638.19Zm-35.62,0h3.26v-26.8h.08L628,325.57h3.77V294.2h-3.25V321h-.08l-21.92-26.8h-3.92Zm-18.49,0h3.25V297.19h12.3v-3H571.78v3h12.3ZM546,297.19h14.06c3,0,6.46.88,6.46,5.49,0,4.79-3.21,6.11-6.77,6.11H546Zm-3.25,28.38H546v-13.8H558.6c5.4,0,7.51,1.85,7.6,7.38,0,3.43.26,5.76.83,6.42h3.52c-.75-.71-1-4.53-1.1-6.5-.22-5.14-1.14-8-5.58-8.7v-.09a7.64,7.64,0,0,0,6.15-7.6c0-6.59-4.88-8.48-10.19-8.48H542.74Zm-6.92,0h3.78L525.37,294.2h-3.78l-14.23,31.37h3.51l4.26-9.54h16.52Zm-5.49-12.52H516.45l7-15.6Zm-47.07,12.52h3.25V312.39h12.21c7,0,10.9-3.21,10.9-9.14,0-6.63-4.62-9.05-9.45-9.05H483.26Zm3.25-28.38h13.22c3.74,0,6.37,1.36,6.37,6.06,0,3.65-1.58,6.15-7,6.15H486.51Zm-22.06,28.38h2.2v-10h10v-2.2h-10v-10h-2.2v10h-10v2.2h10ZM419,309.89c0-9.45,6.63-13.49,13.53-13.49s13.53,4,13.53,13.49-6.63,13.48-13.53,13.48-13.53-4-13.53-13.48m-3.51,0c0,11.06,8.12,16.47,17,16.47s17-5.41,17-16.47-8.12-16.48-17-16.48-17,5.41-17,16.48m-28.22,15.68h3.26V315l6.85-5.62L412,325.57h4.61L400,307.16l15.55-13h-4.7l-20.25,17v-17h-3.26Zm-5.6-22.41c-.22-7.46-6.68-9.75-13.1-9.75-6.06,0-12.38,2.24-12.38,9.1,0,5.05,4,7.15,11.46,8.34,5.71.92,11.42,1.49,11.42,6.28,0,5-4.87,6.24-9.57,6.24-6,0-10.41-1.58-11-8.17H355.3c.49,8.43,6.29,11.16,14.24,11.16,6.1,0,13.09-2.11,13.09-9.8,0-6-5.71-7.33-11.42-8.3-7.65-1.27-11.47-2.24-11.47-6.33,0-3.55,3.82-5.53,8.87-5.53s9.41,1.4,9.85,6.76ZM351.2,325.57H355L340.75,294.2H337l-14.23,31.37h3.51l4.26-9.54H347Zm-5.49-12.52H331.83l7-15.6Zm-34.37,8.83L299.22,294.2h-3.78l14,31.37H313l13.88-31.37h-3.52Z" transform="translate(-172 -258.65)"/><polygon class="cls-2" points="27.62 0 15.62 37.43 14.18 37.43 1.5 0 0 0 0 51.73 51.79 51.73 51.79 0 27.62 0"/><polygon class="cls-2" points="7.17 0 16.71 28.14 25.75 0 7.17 0"/><path class="cls-2" d="M262.48,276.38s1.5.06,3.2,0c6.27-.19,9.35-2.52,9.57-7.54a19,19,0,0,0,0-4.07c-.25-3.56-2.16-5.89-5.78-6.12h-7Z" transform="translate(-172 -258.65)"/><path class="cls-2" d="M276.12,258.65A9.07,9.07,0,0,1,281.3,267c0,7.7-8.71,10.93-15.64,10.93-2.56,0-3.35,0-3.35,0v15.77h5v1.35H251.89v-1.35h4.78V258.65H231.94v51.73h51.8V258.65Z" transform="translate(-172 -258.65)"/><rect class="cls-2" y="59.88" width="51.79" height="51.73"/><rect class="cls-2" x="59.94" y="59.88" width="51.79" height="51.73"/></svg>